<svg xmlns="http://www.w3.org/2000/svg" width="512" height="512" class="prefix__fl-svgdocument" overflow="visible"
  data-bbox="47.52601145557156 81.00624855910687 416.94797708885693 322.33078063731523">
  <g data-uid="o_f23lg79bi_5">
    <path
      d="M247.894 277.245c-4.905 0-9.622-1.698-13.395-5.094-26.033-22.638-83.76-69.612-57.16-109.794 7.545-11.508 20.562-18.488 34.522-18.488 11.32 0 21.884 4.339 29.807 12.262 2.453 2.453 4.716 5.094 6.792 8.112 10.753-13.394 24.335-20.563 39.05-20.563 17.922 0 31.693 9.433 36.976 25.09 8.112 24.525-3.773 59.048-64.141 104.513-3.773 2.641-7.924 3.962-12.451 3.962zM211.86 154.056c-10.564 0-20.185 5.094-25.845 13.772-22.826 34.523 36.598 80.365 55.275 96.589 3.396 3.018 8.866 3.207 12.64.566 52.444-39.428 68.29-69.99 60.556-93.005-3.961-11.696-13.583-17.922-27.165-17.922-16.036 0-27.166 11.32-33.014 19.431 8.866 16.224 13.96 37.919 7.168 50.181-3.018 5.282-8.112 8.3-14.337 8.3-5.66 0-10.376-2.829-13.206-7.923-6.036-11.13-2.452-32.825 8.112-50.558a59.925 59.925 0 00-7.923-9.81c-5.848-6.225-13.771-9.621-22.26-9.621zm36.221 29.995c-6.791 14.15-8.3 28.675-5.093 34.9.943 1.887 2.263 2.642 4.15 2.642 2.452 0 4.15-.943 5.282-3.018 3.396-6.037 2.264-19.997-4.339-34.524z"
      fill="#e35d5d" data-uid="o_f23lg79bi_6" />
    <path
      d="M211.245 119.23a3.15 3.15 0 105.753-2.568L201.92 82.874a3.147 3.147 0 00-4.16-1.591 3.149 3.149 0 00-1.593 4.159l15.077 33.788z"
      fill="#737680" data-uid="o_f23lg79bi_7" />
    <path
      d="M187.196 131.313a3.15 3.15 0 001.967-5.612l-19.647-15.665a3.15 3.15 0 00-3.928 4.926l19.647 15.665c.58.461 1.272.686 1.96.686z"
      fill="#737680" data-uid="o_f23lg79bi_8" />
    <path
      d="M288.011 121.025a3.15 3.15 0 004.174-1.553l11.713-25.608a3.149 3.149 0 10-5.727-2.62l-11.714 25.607a3.152 3.152 0 001.554 4.174z"
      fill="#737680" data-uid="o_f23lg79bi_9" />
    <path d="M327.966 109.39l-15.833 18.316a3.149 3.149 0 004.764 4.12l15.833-18.317a3.149 3.149 0 00-4.764-4.12z"
      fill="#737680" data-uid="o_f23lg79bi_10" />
    <path
      d="M250.374 117.4l.11.002a3.15 3.15 0 003.144-3.045l.73-21.7a3.148 3.148 0 00-3.04-3.253c-1.71-.016-3.193 1.302-3.254 3.043l-.73 21.7a3.15 3.15 0 003.04 3.252z"
      fill="#737680" data-uid="o_f23lg79bi_11" />
    <path
      d="M336.554 153.23a3.15 3.15 0 102.767 5.659l33.239-16.246a3.146 3.146 0 001.445-4.212 3.149 3.149 0 00-4.212-1.448l-33.24 16.246z"
      fill="#737680" data-uid="o_f23lg79bi_12" />
    <path
      d="M337.438 230.012a3.15 3.15 0 001.698 4.117l26 10.812a3.149 3.149 0 102.419-5.815l-26-10.812a3.152 3.152 0 00-4.117 1.698z"
      fill="#737680" data-uid="o_f23lg79bi_13" />
    <path d="M350.458 269.535l-18.856-15.182a3.149 3.149 0 00-3.95 4.904l18.856 15.183a3.149 3.149 0 003.95-4.905z"
      fill="#737680" data-uid="o_f23lg79bi_14" />
    <path
      d="M339.748 192.271l.001.11a3.149 3.149 0 003.153 3.036l21.711-.027a3.148 3.148 0 003.144-3.152c-.043-1.71-1.412-3.146-3.153-3.146l-21.712.028a3.15 3.15 0 00-3.144 3.151z"
      fill="#737680" data-uid="o_f23lg79bi_15" />
    <path
      d="M164.358 153.23a3.15 3.15 0 11-2.767 5.659l-33.239-16.246a3.146 3.146 0 01-1.445-4.212 3.149 3.149 0 014.212-1.448l33.24 16.246z"
      fill="#737680" data-uid="o_f23lg79bi_16" />
    <path
      d="M163.475 230.012a3.15 3.15 0 01-1.698 4.117l-26 10.812a3.149 3.149 0 11-2.419-5.815l26-10.812a3.152 3.152 0 014.117 1.698z"
      fill="#737680" data-uid="o_f23lg79bi_17" />
    <path d="M150.453 269.535l18.857-15.182a3.149 3.149 0 013.95 4.904l-18.856 15.183a3.149 3.149 0 01-3.95-4.905z"
      fill="#737680" data-uid="o_f23lg79bi_18" />
    <path
      d="M161.165 192.271c-.001.038 0 .072-.002.11a3.149 3.149 0 01-3.152 3.036l-21.712-.027a3.148 3.148 0 01-3.144-3.152c.043-1.71 1.413-3.146 3.154-3.146l21.712.028a3.15 3.15 0 013.144 3.151z"
      fill="#737680" data-uid="o_f23lg79bi_19" />
    <path
      d="M293.853 289.81a3.15 3.15 0 10-5.753 2.567l15.077 33.788a3.147 3.147 0 004.159 1.591 3.149 3.149 0 001.594-4.16l-15.077-33.787z"
      fill="#737680" data-uid="o_f23lg79bi_20" />
    <path
      d="M317.369 277.486a3.15 3.15 0 00-2.729 5.283l17.275 18.246a3.15 3.15 0 004.575-4.33l-17.275-18.246a3.136 3.136 0 00-1.846-.953z"
      fill="#737680" data-uid="o_f23lg79bi_21" />
    <path
      d="M217.087 288.014a3.15 3.15 0 00-4.174 1.553L201.2 315.175a3.149 3.149 0 105.727 2.62l11.714-25.608a3.152 3.152 0 00-1.554-4.173z"
      fill="#737680" data-uid="o_f23lg79bi_22" />
    <path d="M177.132 299.65l15.832-18.317a3.149 3.149 0 00-4.763-4.12l-15.833 18.317a3.149 3.149 0 004.764 4.12z"
      fill="#737680" data-uid="o_f23lg79bi_23" />
    <path
      d="M254.724 291.64c-.038 0-.071-.003-.11-.003a3.15 3.15 0 00-3.144 3.044l-.73 21.701a3.148 3.148 0 003.04 3.252c1.71.017 3.193-1.301 3.253-3.042l.731-21.7a3.15 3.15 0 00-3.04-3.253z"
      fill="#737680" data-uid="o_f23lg79bi_24" />
  </g>
  <path text-anchor="end" font-size="100" letter-spacing="0" font-family="Fugaz One" fill="#737680"
    data-uid="o_f23lg79bi_25"
    d="M80.784 354.4h11.925l-8.348 47.7H72.37l3.047-17.224H62.5L59.517 402.1H47.526l8.414-47.7h11.925l-3.578 20.14h12.92l3.577-20.14zm26.5 48.628q-13.78 0-13.78-9.54 0-1.325.265-2.848l1.39-8.215q1.127-6.36 5.864-9.772t12.555-3.412q13.316 0 13.316 10.07 0 1.457-.265 3.18l-.795 4.704h-20.207l-.265 1.523q-.132.795-.132 1.458 0 3.644 4.306 3.644 1.59 0 2.717-.994 1.126-.994 1.325-2.319l10.997.133q-2.186 12.388-17.291 12.388zm-.994-19.875h8.944q.265-1.126.265-2.087 0-.96-.861-1.954-.862-.994-2.75-.994t-3.445 1.259q-1.557 1.259-2.153 3.776zm56.313-6.161q0 2.253-.762 4.373t-1.49 3.113l-.73.928h-10.003q1.656-1.524 1.656-3.776 0-1.193-.762-1.955t-2.087-.762q-2.252 0-3.909 2.253l-3.71 20.935h-11.262l5.631-31.867h10.468l-.795 4.44q3.776-5.367 9.142-5.367 4.306 0 6.46 2.054 2.153 2.053 2.153 5.631zm21.73-7.685q7.155 0 10.799 3.114 2.848 2.451 2.848 6.824 0 1.457-.33 3.18l-1.392 7.75q-1.259 7.023-5.863 9.938-4.605 2.915-12.29 2.915-7.685 0-11.262-2.915-2.65-2.186-2.65-6.558 0-1.524.331-3.38l1.391-7.75q2.319-13.118 18.418-13.118zm.927 19.411l.862-4.968q.132-.663.132-1.69t-.861-2.285q-.861-1.26-3.015-1.26-2.153 0-3.61 1.425-1.458 1.425-1.855 3.81l-.861 4.968q-.133.663-.133 1.69t.861 2.22q.862 1.192 3.015 1.192t3.61-1.491q1.458-1.49 1.855-3.61zm30.608 4.903q1.524 0 2.716-.663l-.331 7.487q-3.114 2.583-7.089 2.583-6.029 0-7.817-2.782-1.193-1.855-1.193-3.942t.265-3.677l3.975-22.393h11.263l-3.71 20.87q-.067.397-.067.728 0 1.789 1.988 1.789zm-8.149-34.185q0-4.24 1.888-6.195 1.888-1.954 5.863-1.954 5.565 0 5.565 4.902 0 4.174-1.888 6.095-1.888 1.922-5.93 1.922-5.498 0-5.498-4.77zm61.878 32.462q0 1.723 1.756 1.723 1.755 0 2.948-.663l-.332 7.487q-3.18 2.583-7.155 2.583-7.287 0-8.082-5.3-3.313 5.3-9.739 5.3-10.865 0-10.865-9.34 0-1.59.331-3.512l1.392-7.751q1.06-5.963 4.869-9.507 3.81-3.545 10.567-3.545 4.174 0 6.625 1.789l3.379-19.345h11.328l-6.956 39.286q-.066.398-.066.795zm-18.749-8.148l-.861 4.968q-.133.597-.133 1.657t.994 2.086q.994 1.027 3.346 1.027 2.352 0 4.074-1.855l1.988-11.13q-.73-1.656-3.445-1.656-5.102 0-5.963 4.903zm59.625 8.148q0 1.723 1.756 1.723t2.948-.663l-.331 7.487q-3.18 2.583-7.155 2.583-7.288 0-8.083-5.3-3.312 5.3-9.738 5.3-10.866 0-10.866-9.34 0-1.59.332-3.512l1.391-7.751q1.06-5.963 4.87-9.507 3.809-3.545 9.937-3.545 6.128 0 8.314 2.849l.332-1.988h10.07l-3.71 20.87q-.067.397-.067.794zm-18.748-8.148l-.862 4.968q-.132.597-.132 1.657t.994 2.086q.993 1.027 3.345 1.027 2.352 0 4.075-1.855l1.987-11.13q-.729-1.656-3.445-1.656-5.101 0-5.962 4.903z" />
  <path font-size="100" letter-spacing="0" font-family="Fugaz One" fill="#e35d5d" data-uid="o_f23lg79bi_26"
    d="M345.82 390.617h1.547l12.788-36.68h13.124l-18.374 48.458h-21.537l-.538-48.458h13.191l-.202 36.68zm39.035 12.72q-13.999 0-13.999-9.692 0-1.346.27-2.894l1.413-8.345q1.144-6.461 5.956-9.927 4.812-3.466 12.754-3.466 13.528 0 13.528 10.23 0 1.48-.27 3.23l-.807 4.779h-20.528l-.269 1.548q-.134.807-.134 1.48 0 3.702 4.374 3.702 1.616 0 2.76-1.01 1.144-1.01 1.346-2.355l11.172.134q-2.221 12.586-17.566 12.586zm-1.01-20.19h9.086q.27-1.145.27-2.12 0-.977-.875-1.986-.875-1.01-2.793-1.01-1.919 0-3.5 1.279-1.582 1.279-2.188 3.836zm54.583 9.825l-1.683 9.423h-30.219l1.683-9.423 18.98-13.527h-16.624l1.682-9.423h30.219l-1.683 9.423-18.373 13.527h16.018zm26.046-43.814l-7.336 35.604h-8.951l4.846-35.604h11.441zm-20.393 49.333q0-4.307 1.885-6.293 1.884-1.985 5.99-1.985 5.653 0 5.653 4.98 0 4.24-1.918 6.192t-6.024 1.952q-5.586 0-5.586-4.846z" />
</svg>